# xmcd CD database file
#
# Track frame offsets:
#	150
#	22228
#	39103
#	69929
#	91213
#	109834
#	133412
#	153454
#	172417
#	201817
#	218162
#	235887
#
# Disc length: 3431 seconds
#
# Revision: 3
# Processed by: cddbd v1.5.2PL0 Copyright (c) Steve Scherf et al.
# Submitted via: CDex 1.70beta2
#
DISCID=ab0d650c
DTITLE=Tears For Fears - Secret World [CD) (1 of 2)
DYEAR=2006
DGENRE=Pop/Rock
TTITLE0=Secret World
TTITLE1=Call Me Mellow
TTITLE2=Sowing The Seeds Of Love
TTITLE3=Pale Shelter
TTITLE4=Closest Thing To Heaven
TTITLE5=Mad World
TTITLE6=Everybody Wants To Rule The World
TTITLE7=Head Over Heels
TTITLE8=Shout
TTITLE9=Secret World (Radio Edit)
TTITLE10=Floating Down The River
TTITLE11=What Are We Fighting For
EXTD=YEAR: 2006
EXTT0=
EXTT1=
EXTT2=
EXTT3=
EXTT4=
EXTT5=
EXTT6=
EXTT7=
EXTT8=
EXTT9=
EXTT10=
EXTT11=
PLAYORDER=
